<svg width="277" height="518" viewBox="0 0 277 518" fill="none" xmlns="http://www.w3.org/2000/svg">
<path d="M4.99998 1H110V503H100.857C74.0699 503 47.4001 506.541 21.5407 513.53L4.99998 518V1Z" fill="#B01313"/>
<path d="M271 0H166V502H175.143C201.93 502 228.6 505.541 254.459 512.53L271 517V0Z" fill="#B01313"/>
<g filter="url(#filter0_d_104:24)">
<path d="M270.941 199.083L272.051 308.626C272.051 308.626 228.628 295.895 138.789 296.075C48.9491 296.255 5.66815 307.296 5.66815 307.296L4.55778 197.753C4.55778 197.753 19.9217 191.804 136.041 191.571C252.159 191.338 270.941 199.083 270.941 199.083Z" fill="#E50914"/>
</g>
<defs>
<filter id="filter0_d_104:24" x="0.557785" y="191.566" width="275.493" height="131.06" filterUnits="userSpaceOnUse" color-interpolation-filters="sRGB">
<feFlood flood-opacity="0" result="BackgroundImageFix"/>
<feColorMatrix in="SourceAlpha" type="matrix" values="0 0 0 0 0 0 0 0 0 0 0 0 0 0 0 0 0 0 127 0" result="hardAlpha"/>
<feOffset dy="10"/>
<feGaussianBlur stdDeviation="2"/>
<feComposite in2="hardAlpha" operator="out"/>
<feColorMatrix type="matrix" values="0 0 0 0 0 0 0 0 0 0 0 0 0 0 0 0 0 0 0.25 0"/>
<feBlend mode="normal" in2="BackgroundImageFix" result="effect1_dropShadow_104:24"/>
<feBlend mode="normal" in="SourceGraphic" in2="effect1_dropShadow_104:24" result="shape"/>
</filter>
</defs>
</svg>
